<svg width="180" height="12" viewBox="0 0 180 12" fill="none" xmlns="http://www.w3.org/2000/svg">
<path d="M88.5743 5.22857C88.6061 5.63886 89.2726 5.63886 89.2092 5.22857C88.7965 1.97785 93.0816 2.79842 94.7639 3.90303C95.9065 4.66048 96.3192 5.95446 95.9383 7.21688C95.3035 9.2683 93.0498 10.0889 91.0819 10.0889C87.5904 10.1204 84.0988 9.23675 80.9564 7.72185C78.068 6.3332 75.5287 4.40799 72.7037 2.89309C73.4973 1.97784 74.6717 1.34664 75.9731 1.28352C78.4171 1.18884 80.1629 2.60905 81.3691 4.53424C81.496 4.75516 81.8452 4.66049 81.8452 4.40801C81.9404 1.75693 79.3059 0.242027 76.9571 0.0211036C74.9574 -0.168259 73.1164 0.936356 72.0372 2.54594C71.4658 2.26189 70.8945 2.00941 70.3231 1.75693C67.0538 0.46295 63.0862 -0.231387 59.7533 1.31507C59.2455 1.536 58.7693 1.82005 58.2932 2.13566C56.3253 1.94629 54.3891 2.1041 52.6116 2.76686C50.8975 3.39807 49.3422 4.69204 48.5804 6.36474C47.8186 4.69204 46.2633 3.39807 44.5493 2.76686C42.7718 2.13566 40.8039 1.94629 38.8676 2.13566C38.4233 1.82005 37.9154 1.536 37.4075 1.31507C34.0747 -0.231387 30.1071 0.46295 26.8377 1.75693C26.2346 1.97785 25.695 2.26189 25.1237 2.54594C24.0762 0.936356 22.2035 -0.168259 20.2038 0.0211036C17.855 0.242027 15.2205 1.75693 15.3157 4.40801C15.3157 4.66049 15.6648 4.75516 15.7918 4.53424C16.998 2.60905 18.7437 1.15728 21.1878 1.28352C22.4892 1.34664 23.6954 1.97784 24.4571 2.89309C21.6322 4.40799 19.0929 6.36476 16.2044 7.72185C13.0621 9.20519 9.57052 10.1204 6.07899 10.0889C4.14278 10.0573 1.85742 9.23674 1.2226 7.21688C0.809961 5.95446 1.2226 4.66048 2.39702 3.90303C4.07931 2.79842 8.36437 2.00941 7.95173 5.22857C7.88825 5.63886 8.55481 5.63886 8.58655 5.22857C9.03093 1.12572 2.80966 1.85161 0.968671 3.96616C-0.364459 5.48106 -0.300973 7.65872 1.03216 9.20518C2.96837 11.4144 6.20597 11.6985 8.96745 11.3829C12.1416 11.0041 15.1887 10.1204 18.1089 8.76334C20.5847 7.62717 22.9336 6.04914 25.3776 4.78672C25.5046 5.57573 25.3459 6.3963 24.8698 7.21688C22.5527 11.0672 17.3471 11.9194 13.1573 11.8247C13.0938 11.8247 13.0938 11.9194 13.1573 11.9194C16.3632 12.1403 19.8864 12.0141 22.6479 10.152C24.4571 8.95269 26.3299 6.80659 25.9172 4.47112C26.9012 3.96615 27.9169 3.5243 28.9644 3.2087C31.0911 2.51437 33.5669 2.07254 35.7887 2.67219C35.8205 2.67219 35.8522 2.70374 35.884 2.70374C32.9955 3.52431 30.2658 5.03922 28.2344 6.93284C28.1074 7.05908 28.2978 7.24844 28.4248 7.1222C30.6467 5.32325 33.4082 3.65056 36.2966 2.82999C37.9789 3.39808 40.0103 4.5658 40.3595 6.36474C41.3752 11.5091 32.7416 11.5407 34.3604 7.05907C34.4239 6.83815 34.1065 6.77503 34.0112 6.9644C32.0433 12.0141 40.3912 12.8978 41.5974 8.32149C42.2957 5.79666 41.026 3.71367 39.1216 2.32501C39.6294 2.29345 40.169 2.29345 40.6769 2.32501C42.6448 2.48281 45.0889 3.01934 46.3903 4.62892C47.4377 5.92289 48.3582 8.16369 46.3586 8.9527C45.692 9.20518 45.7237 10.3729 46.549 10.2782C47.5012 10.1836 48.1995 9.74172 48.5804 9.14207C48.9613 9.74172 49.6596 10.152 50.6119 10.2782C51.4371 10.3729 51.4689 9.20518 50.8023 8.9527C48.7709 8.16369 49.6914 5.92289 50.7706 4.62892C52.1037 2.98778 54.516 2.45125 56.484 2.32501C56.9919 2.29345 57.5314 2.29345 58.0393 2.32501C56.1348 3.74523 54.8652 5.79666 55.5635 8.32149C56.8014 12.8662 65.1176 12.0141 63.1496 6.9644C63.0544 6.74347 62.737 6.83815 62.8005 7.05907C64.4193 11.5407 55.7857 11.5091 56.8014 6.36474C57.1506 4.5658 59.182 3.39808 60.8643 2.82999C63.7845 3.65056 66.5459 5.32325 68.7361 7.1222C68.8631 7.21688 69.0535 7.05908 68.9265 6.93284C66.8951 5.03922 64.1654 3.52431 61.2769 2.70374C61.3086 2.70374 61.3404 2.67219 61.3721 2.67219C63.594 2.07254 66.0698 2.51437 68.1965 3.2087C69.2439 3.55586 70.2597 3.99771 71.2436 4.47112C70.831 6.80659 72.7037 8.92113 74.513 10.152C77.2745 11.9825 80.7977 12.1403 84.0036 11.9194C84.0671 11.9194 84.0671 11.8247 84.0036 11.8247C79.8138 11.9194 74.6399 11.0672 72.2911 7.21688C71.7832 6.3963 71.6563 5.54417 71.7832 4.78672C74.2273 6.04914 76.5444 7.62717 79.052 8.76334C81.9722 10.1204 84.9876 11.0041 88.1934 11.3829C90.9549 11.6985 94.1925 11.4144 96.1287 9.20518C97.4619 7.65872 97.5253 5.48106 96.1922 3.96616C94.3195 1.88317 88.0982 1.12572 88.5743 5.22857Z" fill="#004C72"/>
<path d="M179.857 7.70127C164.78 7.32254 149.671 7.3541 134.594 7.16473C126.786 7.07005 118.978 6.88069 111.169 6.91225C107.392 6.91225 103.615 6.94382 99.8693 7.0385C96.9809 7.10162 93.9972 7.0385 91.077 7.29098C90.8231 6.56509 90.1566 6.06012 89.363 6.06012C88.3473 6.06012 87.5538 6.88069 87.5538 7.85907C87.5538 8.869 88.379 9.65802 89.363 9.65802C90.1566 9.65802 90.8548 9.12148 91.077 8.42715C93.7116 8.64807 96.4096 8.58496 99.0441 8.64808C102.821 8.74276 106.598 8.77433 110.344 8.77433C118.152 8.77433 125.961 8.61653 133.769 8.52185C149.132 8.33249 164.494 8.36404 179.857 7.98532C180.048 7.98532 180.048 7.70127 179.857 7.70127Z" fill="#004C72"/>
</svg>
